<?xml version="1.0" encoding="UTF-8"?>
<svg version="1.1" xmlns="http://www.w3.org/2000/svg" width="1024" height="1024">
<path d="M0 0 C337.92 0 675.84 0 1024 0 C1024 337.92 1024 675.84 1024 1024 C686.08 1024 348.16 1024 0 1024 C0 686.08 0 348.16 0 0 Z " fill="#171E27" transform="translate(0,0)"/>
<path d="M0 0 C24.87043472 -0.09366862 49.74084279 -0.16408928 74.61141872 -0.20724869 C86.16068373 -0.22782588 97.70983879 -0.25585341 109.2590332 -0.30175781 C119.33173468 -0.34177435 129.40435647 -0.36746796 139.47713524 -0.37635398 C144.80478256 -0.38154373 150.13220203 -0.39363943 155.45977592 -0.42292023 C160.48716468 -0.45032403 165.51423446 -0.45839519 170.54169083 -0.45243073 C172.37449573 -0.45351991 174.20731271 -0.46132363 176.04005241 -0.4768219 C201.55190349 -0.68174765 225.8417417 6.07004791 244.78515625 23.81640625 C257.57797449 36.42872618 264.77189845 52.24326233 265.30078125 70.27734375 C265.31520541 72.49735241 265.3189649 74.71745389 265.3125 76.9375 C265.32861328 78.04029297 265.34472656 79.14308594 265.36132812 80.27929688 C265.37010001 95.14763628 260.61253273 109.56483119 251 121 C250.59652344 121.56976563 250.19304687 122.13953125 249.77734375 122.7265625 C245.61770514 128.29818852 239.88979372 131.51091909 234.046875 135.08203125 C231.02535404 136.82683224 231.02535404 136.82683224 229 139 C229.95519531 139.46148437 230.91039062 139.92296875 231.89453125 140.3984375 C249.5541339 149.18926022 261.0409264 161.77657756 268.0703125 180.22265625 C273.89870324 197.63436136 271.92993651 217.5474622 264.4375 234.16015625 C254.26332363 254.25968402 237.54285594 265.31040126 216.48200274 272.26545846 C212.59231219 273.41660114 208.68498996 274.0844815 204.67523193 274.66621399 C203.81013748 274.79267691 202.94504303 274.91913983 202.05373359 275.04943496 C192.76017082 276.30883501 183.55887227 276.40098774 174.19628906 276.34057617 C172.3115897 276.33972696 170.42688935 276.34021076 168.54219055 276.34190369 C163.49592498 276.34275359 158.44987962 276.32529354 153.40366459 276.30418181 C148.10398073 276.28524461 142.80429011 276.2836513 137.50457764 276.28010559 C127.500185 276.27083464 117.4958924 276.24628892 107.49154353 276.21605712 C93.95051299 276.17603874 80.40945449 276.16001817 66.86837959 276.14255047 C45.57884501 276.11446343 24.28952138 276.05466119 3 276 C3 220.56 3 165.12 3 108 C15.20484375 107.97421875 27.4096875 107.9484375 39.984375 107.921875 C47.72267224 107.8967046 55.46094469 107.87053264 63.19921875 107.83984375 C75.47802552 107.79133367 87.75674983 107.7468782 100.03564453 107.72900391 C108.97928486 107.71596587 117.92275709 107.68894636 126.86630273 107.64538693 C131.59849678 107.62282048 136.33048388 107.60708642 141.06273651 107.60811615 C145.52470298 107.60886562 149.98621278 107.59080052 154.44806099 107.55883217 C156.07813239 107.55037319 157.70825526 107.54855579 159.33833885 107.55419731 C174.64708947 107.73797365 174.64708947 107.73797365 188.0544548 101.25017929 C193.4100625 95.49514071 194.48574866 89.70050782 194.296875 82.00390625 C193.85962681 77.57964498 192.96006285 74.37326959 190 71 C182.67316226 65.43793215 176.87844282 63.85317652 167.81231689 63.84178162 C166.97993807 63.83684364 166.14755924 63.83190566 165.28995681 63.82681805 C162.49701749 63.81144332 159.70410116 63.80308247 156.91113281 63.79467773 C154.91056618 63.78509919 152.91000157 63.77508913 150.90943909 63.76467896 C145.47391183 63.73762124 140.03837589 63.71661634 134.60281849 63.69667697 C128.92397792 63.67482279 123.24516416 63.64743131 117.56634521 63.62062073 C106.81066382 63.57068618 96.05496755 63.52575016 85.29925704 63.48259836 C73.05512317 63.43323252 60.81101621 63.37831196 48.56690836 63.32291877 C23.377964 63.20908701 -1.81100616 63.10225055 -27 63 C-26.19913024 58.54477731 -24.66894598 54.74296268 -22.75390625 50.6640625 C-22.42390121 49.94882416 -22.09389618 49.23358582 -21.75389099 48.49667358 C-20.69513799 46.20374075 -19.62934573 43.91417726 -18.5625 41.625 C-13.82711816 31.43160376 -9.18894416 21.20670272 -4.72241211 10.89208984 C-4.26549736 9.83898117 -3.80858261 8.7858725 -3.33782196 7.70085144 C-2.22438749 5.13425824 -1.11179569 2.56730341 0 0 Z " fill="#FDFDFD" transform="translate(532,356)"/>
<path d="M0 0 C1.86455268 0.00084867 3.72910635 0.00036647 5.59365845 -0.00132751 C10.59878095 -0.00217954 15.60368268 0.01531608 20.6087544 0.03639436 C25.86040929 0.05529503 31.11207062 0.05692206 36.36375427 0.06047058 C46.28324876 0.06975204 56.2026427 0.09431242 66.12209314 0.12451905 C77.42576474 0.15818525 88.72944144 0.17457964 100.03315079 0.18960536 C123.26230902 0.22086593 146.49137834 0.27354965 169.72045898 0.34057617 C169.25516717 1.76341527 168.78750868 3.18548055 168.31887817 4.60722351 C168.05870974 5.39921992 167.7985413 6.19121634 167.53048897 7.00721264 C166.37127012 10.34644581 164.94979237 13.53152316 163.46264648 16.73510742 C163.15792419 17.40160812 162.8532019 18.06810883 162.53924561 18.75480652 C161.56221889 20.88953511 160.57894606 23.02131737 159.59545898 25.15307617 C158.91968815 26.62616434 158.24439803 28.09947312 157.56958008 29.57299805 C156.56263177 31.77168837 155.5554073 33.97024507 154.54641724 36.16799927 C151.3977341 43.02891523 148.30804505 49.91581288 145.24731445 56.81640625 C142.82817735 62.2328578 142.82817735 62.2328578 141.72045898 63.34057617 C139.80897221 63.44066097 137.89374869 63.46967211 135.97964478 63.47187805 C134.10824326 63.47789032 134.10824326 63.47789032 132.19903564 63.48402405 C130.80334471 63.48354888 129.40765379 63.48301275 128.01196289 63.48242188 C126.55184829 63.4854519 125.09173464 63.48897292 123.63162231 63.49295044 C120.47826659 63.50085588 117.32492227 63.50599071 114.17155838 63.5092411 C109.1780882 63.51514527 104.18468954 63.53168305 99.19125366 63.55058289 C97.48179822 63.55692107 95.77234273 63.56324669 94.06288719 63.56956005 C93.20648101 63.57272586 92.35007482 63.57589167 91.46771693 63.57915342 C79.83924945 63.62120937 68.21081377 63.65416674 56.58227539 63.66650391 C48.74466423 63.6749047 40.90722868 63.69747593 33.06970537 63.73585957 C28.92383704 63.75556444 24.7782309 63.76804373 20.63231277 63.76302528 C16.72353253 63.75835223 12.81524721 63.77232771 8.90656662 63.80003738 C7.47925186 63.80690673 6.05188545 63.80712205 4.62457275 63.79983711 C-4.35624287 63.75866513 -14.23142126 63.83741846 -21.30687523 70.14905262 C-26.53542824 75.88930518 -26.68205478 81.21938531 -26.62719727 88.81323242 C-26.01572436 95.0172777 -23.2424918 98.32309897 -19.02954102 102.65307617 C-11.64685713 107.18335947 -4.33061316 107.77605759 4.16845703 107.7253418 C5.27869736 107.73071457 6.38893768 107.73608734 7.53282166 107.74162292 C9.93081109 107.75136521 12.32883564 107.75435588 14.72684288 107.75126648 C18.53313708 107.74676592 22.33897185 107.76085425 26.1452179 107.77966309 C34.23279941 107.81636082 42.32031155 107.83028246 50.40795898 107.84057617 C59.76858836 107.85250869 69.12896911 107.87443545 78.48951149 107.920578 C82.21947421 107.93405446 85.94914581 107.92999377 89.67912292 107.9251709 C101.06453719 107.9519508 111.72472133 108.07681086 122.72045898 111.34057617 C123.46878998 111.54306473 124.21712097 111.74555328 124.98812866 111.95417786 C137.50918547 115.48422251 147.74407667 121.11547202 157.72045898 129.34057617 C158.71045898 130.06245117 159.70045898 130.78432617 160.72045898 131.52807617 C173.11765668 142.13952794 180.07411494 158.61070716 182.72045898 174.34057617 C182.8506543 175.08178711 182.98084961 175.82299805 183.11499023 176.58666992 C186.15575428 198.03419232 182.84358933 224.57525005 169.72045898 242.34057617 C166.88083125 245.84582554 163.87750292 249.11986077 160.72045898 252.34057617 C160.0669043 253.03022461 159.41334961 253.71987305 158.73999023 254.43041992 C138.29004311 274.40570677 108.8019316 276.67223422 81.83203125 276.56762695 C79.77073166 276.56706162 77.70943168 276.56738177 75.64813232 276.56851196 C70.09750871 276.56908172 64.54697295 276.55738895 58.9963696 276.54336405 C53.178813 276.53079334 47.361254 276.52968122 41.54368591 276.52731323 C30.54750836 276.521117 19.55137095 276.50473148 8.55521101 276.48461425 C-3.97209965 276.46219723 -16.4994123 276.45124727 -29.02673805 276.44122338 C-54.77769456 276.42036348 -80.52861553 276.38522388 -106.27954102 276.34057617 C-105.9664983 274.89814355 -105.65140649 273.45615553 -105.33544922 272.01435852 C-105.16020218 271.21130437 -104.98495514 270.40825022 -104.80439758 269.58086109 C-104.20709736 267.03135946 -103.41466423 264.63642673 -102.46704102 262.19604492 C-101.94400391 260.82923584 -101.94400391 260.82923584 -101.41040039 259.43481445 C-101.0372168 258.47559082 -100.6640332 257.51636719 -100.27954102 256.52807617 C-96.18441819 245.82337077 -92.28907904 235.05959577 -88.46704102 224.25537109 C-88.06485352 223.12075439 -87.66266602 221.9861377 -87.24829102 220.81713867 C-86.71365234 219.30240967 -86.71365234 219.30240967 -86.16821289 217.75708008 C-85.27954102 215.34057617 -85.27954102 215.34057617 -84.27954102 213.34057617 C-83.36108713 213.3400314 -82.44263325 213.33948664 -81.49634743 213.33892536 C-59.12759678 213.32394498 -36.75904516 213.28144721 -14.39040565 213.2084856 C-3.57299174 213.17386214 7.2442951 213.14848354 18.06176758 213.14501953 C27.49249707 213.14197597 36.92300007 213.12143271 46.35364211 213.0800516 C51.34515081 213.0587556 56.3363378 213.04610356 61.3278923 213.05442238 C66.0312256 213.06198398 70.73390817 213.04605416 75.43712234 213.01251602 C77.15833875 213.00430814 78.87962018 213.00450274 80.60083008 213.01397896 C91.35710341 213.06731025 99.20992614 212.01480488 108.15795898 205.59057617 C112.3865318 199.50143131 113.32878885 193.26215711 112.34155273 185.98510742 C111.0752971 180.59356615 109.03370984 176.88659883 104.37670898 173.77416992 C96.1504101 169.42562939 88.58073951 169.19416628 79.4453125 169.19873047 C78.31760941 169.19525604 77.18990631 169.19178162 76.0280304 169.1882019 C73.58250481 169.18086038 71.13697263 169.17550647 68.69143867 169.17191124 C64.80961398 169.16472129 60.9279139 169.14903374 57.04612732 169.13056946 C55.71223169 169.12423256 54.37833601 169.11790693 53.04444027 169.11159229 C52.37651671 169.10842648 51.70859316 169.10526067 51.02042949 169.10199893 C41.99280246 169.06009712 32.96521777 169.02699996 23.9375 169.01464844 C17.18067183 169.00530935 10.42416721 168.97506128 3.6674633 168.93332863 C1.10371215 168.92108417 -1.46008343 168.91588527 -4.02386284 168.91812706 C-17.35461859 168.92691208 -29.63794034 168.91120805 -42.27954102 164.34057617 C-43.45572495 163.9421904 -44.63190887 163.54380463 -45.84373474 163.13334656 C-65.89034577 156.17845866 -81.85975569 141.89759673 -91.09204102 122.90307617 C-96.41653833 110.33799946 -98.45939401 98.18063191 -98.46704102 84.65307617 C-98.47928711 83.53223633 -98.4915332 82.41139648 -98.50415039 81.2565918 C-98.52168328 71.18687164 -97.25969992 61.8297999 -93.65454102 52.40307617 C-93.39656738 51.72559326 -93.13859375 51.04811035 -92.87280273 50.35009766 C-86.93954508 35.49595085 -76.50662769 24.03418556 -63.27954102 15.34057617 C-62.34110352 14.72053711 -61.40266602 14.10049805 -60.43579102 13.46166992 C-41.96299364 1.96582962 -21.22606795 -0.13757493 0 0 Z " fill="#FCFCFC" transform="translate(327.279541015625,355.659423828125)"/>
<path d="M0 0 C14.0218469 -0.09053317 28.04349821 -0.16385019 42.06557178 -0.20724869 C48.57727266 -0.22808256 55.08876241 -0.25632391 61.6003418 -0.30175781 C67.88975271 -0.34536466 74.1789611 -0.36916868 80.46851158 -0.37950897 C82.86257805 -0.38687368 85.25663402 -0.40125501 87.65061378 -0.42292023 C91.01576928 -0.45215068 94.38009838 -0.4559477 97.74536133 -0.45410156 C98.72504379 -0.46848267 99.70472626 -0.48286377 100.71409607 -0.49768066 C109.91293183 -0.44342432 118.84114818 1.86396108 125.62890625 8.375 C129.50767396 12.97205802 130.53156841 17.83414513 130.2734375 23.671875 C129.39840394 31.12216078 127.14150046 35.5929996 121.42578125 40.4921875 C114.33634384 44.89882654 108.04930392 45.42764944 99.90234375 45.34057617 C98.27662193 45.34123329 98.27662193 45.34123329 96.61805725 45.34190369 C93.05768431 45.33982397 89.49779006 45.31653087 85.9375 45.29296875 C83.46028907 45.28736991 80.98307482 45.28310117 78.50585938 45.28010559 C72.00224555 45.2686796 65.49883435 45.23923148 58.99530029 45.20599365 C52.35235971 45.17524447 45.70939925 45.1615899 39.06640625 45.14648438 C26.04416772 45.11435981 13.02213245 45.06160995 0 45 C0 30.15 0 15.3 0 0 Z " fill="#1A212A" transform="translate(602,524)"/>
<path d="M0 0 C0 0.99 0 1.98 0 3 C-1.8125 4.75 -1.8125 4.75 -4 6 C-4.99 5.67 -5.98 5.34 -7 5 C-4.87219421 2.65941363 -2.88437779 1.29299694 0 0 Z " fill="#222A33" transform="translate(767,490)"/>
</svg>
